<svg width="20" height="17" viewBox="0 0 20 17" fill="none" xmlns="http://www.w3.org/2000/svg">
<path d="M19.333 8.32007C19.333 8.76305 19.0038 9.12914 18.5767 9.18708L18.458 9.19507L0.958006 9.19507C0.474758 9.19507 0.0830059 8.80332 0.0830059 8.32007C0.0830059 7.87709 0.412186 7.511 0.839275 7.45306L0.958006 7.44507L18.458 7.44507C18.9413 7.44507 19.333 7.83682 19.333 8.32007Z" fill="white"/>
<path d="M8.63301 14.7284C8.97545 15.0694 8.97665 15.6234 8.63567 15.9658C8.3257 16.2771 7.83965 16.3064 7.49656 16.053L7.39824 15.9685L0.339907 8.94048C0.0276632 8.62958 -0.000741005 8.14178 0.254705 7.79869L0.339855 7.70043L7.39819 0.671262C7.7406 0.330261 8.29462 0.331408 8.63562 0.673824C8.94562 0.985111 8.97286 1.47128 8.71799 1.8133L8.63306 1.91126L2.19769 8.32078L8.63301 14.7284Z" fill="white"/>
</svg>
