<svg width="428" height="777" viewBox="0 0 428 777" fill="none" xmlns="http://www.w3.org/2000/svg">
<g filter="url(#filter0_f_32_2335)">
<circle cx="203.5" cy="388.5" r="143.5" fill="#0A51CD" fill-opacity="0.5"/>
</g>
<circle cx="203.5" cy="370.5" r="82.9868" stroke="#0B66FF" stroke-opacity="0.28" stroke-width="0.88756"/>
<circle cx="203.944" cy="370.944" r="140.234" stroke="#0B66FF" stroke-opacity="0.28" stroke-width="0.88756"/>
<circle cx="203.5" cy="370.5" r="184.915" stroke="#0B66FF" stroke-opacity="0.28" stroke-width="1.17035"/>
<g filter="url(#filter1_di_32_2335)">
<circle cx="164.5" cy="190.5" r="8.5" fill="white"/>
</g>
<g filter="url(#filter2_di_32_2335)">
<circle cx="111.5" cy="532.5" r="8.5" fill="white"/>
</g>
<g filter="url(#filter3_di_32_2335)">
<circle cx="77.5" cy="314.5" r="8.5" fill="white"/>
</g>
<g filter="url(#filter4_di_32_2335)">
<circle cx="338.5" cy="335.5" r="8.5" fill="white"/>
</g>
<g filter="url(#filter5_di_32_2335)">
<circle cx="186.5" cy="503.5" r="8.5" fill="white"/>
</g>
<g filter="url(#filter6_di_32_2335)">
<circle cx="327.447" cy="435.447" r="6.23182" transform="rotate(102.672 327.447 435.447)" fill="#3783FD"/>
</g>
<path d="M180.881 381.152C179.11 381.152 177.466 380.886 175.948 380.355C174.456 379.798 173.292 379.103 172.457 378.268C172.078 377.863 171.913 377.408 171.964 376.902C172.04 376.371 172.293 375.941 172.723 375.612C173.229 375.207 173.722 375.043 174.203 375.119C174.709 375.169 175.139 375.384 175.493 375.764C175.923 376.244 176.606 376.7 177.542 377.13C178.503 377.534 179.566 377.737 180.729 377.737C182.196 377.737 183.309 377.496 184.068 377.016C184.852 376.535 185.257 375.915 185.283 375.157C185.308 374.398 184.941 373.74 184.182 373.183C183.449 372.627 182.095 372.172 180.122 371.817C177.567 371.311 175.708 370.553 174.544 369.541C173.406 368.529 172.837 367.289 172.837 365.822C172.837 364.532 173.216 363.47 173.975 362.635C174.734 361.775 175.708 361.142 176.897 360.738C178.086 360.308 179.325 360.093 180.615 360.093C182.285 360.093 183.765 360.358 185.055 360.889C186.345 361.421 187.369 362.154 188.128 363.09C188.482 363.495 188.647 363.925 188.622 364.38C188.596 364.81 188.381 365.177 187.977 365.481C187.572 365.759 187.091 365.847 186.535 365.746C185.978 365.645 185.51 365.417 185.131 365.063C184.498 364.456 183.815 364.039 183.082 363.811C182.348 363.583 181.501 363.47 180.539 363.47C179.426 363.47 178.478 363.659 177.694 364.039C176.935 364.418 176.555 364.975 176.555 365.708C176.555 366.164 176.669 366.581 176.897 366.961C177.15 367.315 177.63 367.644 178.339 367.947C179.047 368.225 180.084 368.504 181.45 368.782C183.347 369.161 184.84 369.642 185.928 370.224C187.041 370.806 187.837 371.489 188.318 372.273C188.799 373.032 189.039 373.917 189.039 374.929C189.039 376.093 188.723 377.142 188.09 378.078C187.483 379.014 186.573 379.76 185.358 380.317C184.169 380.874 182.677 381.152 180.881 381.152ZM202.584 381.152C200.737 381.152 199.08 380.696 197.613 379.786C196.146 378.85 194.982 377.598 194.122 376.029C193.288 374.436 192.87 372.64 192.87 370.641C192.87 368.643 193.326 366.847 194.236 365.253C195.172 363.659 196.424 362.407 197.993 361.497C199.586 360.561 201.37 360.093 203.343 360.093C205.316 360.093 207.087 360.561 208.655 361.497C210.224 362.407 211.463 363.659 212.374 365.253C213.31 366.847 213.778 368.643 213.778 370.641H212.298C212.298 372.64 211.868 374.436 211.008 376.029C210.173 377.598 209.022 378.85 207.555 379.786C206.088 380.696 204.431 381.152 202.584 381.152ZM203.343 377.737C204.633 377.737 205.784 377.433 206.796 376.826C207.808 376.194 208.605 375.346 209.186 374.284C209.768 373.196 210.059 371.982 210.059 370.641C210.059 369.275 209.768 368.061 209.186 366.998C208.605 365.911 207.808 365.063 206.796 364.456C205.784 363.824 204.633 363.508 203.343 363.508C202.078 363.508 200.927 363.824 199.89 364.456C198.878 365.063 198.069 365.911 197.462 366.998C196.88 368.061 196.589 369.275 196.589 370.641C196.589 371.982 196.88 373.196 197.462 374.284C198.069 375.346 198.878 376.194 199.89 376.826C200.927 377.433 202.078 377.737 203.343 377.737ZM211.842 381.038C211.286 381.038 210.818 380.861 210.439 380.507C210.084 380.127 209.907 379.659 209.907 379.103V373.297L210.628 369.275L213.778 370.641V379.103C213.778 379.659 213.588 380.127 213.208 380.507C212.854 380.861 212.399 381.038 211.842 381.038ZM229.973 381.152C227.999 381.152 226.229 380.696 224.66 379.786C223.092 378.85 221.852 377.585 220.942 375.991C220.031 374.398 219.563 372.602 219.538 370.603V353.301C219.538 352.719 219.715 352.251 220.069 351.897C220.448 351.542 220.916 351.365 221.473 351.365C222.055 351.365 222.523 351.542 222.877 351.897C223.231 352.251 223.408 352.719 223.408 353.301V363.546C224.294 362.483 225.356 361.648 226.595 361.041C227.86 360.409 229.239 360.093 230.731 360.093C232.578 360.093 234.235 360.561 235.702 361.497C237.169 362.407 238.32 363.659 239.155 365.253C240.015 366.821 240.445 368.605 240.445 370.603C240.445 372.602 239.977 374.398 239.041 375.991C238.131 377.585 236.891 378.85 235.323 379.786C233.754 380.696 231.971 381.152 229.973 381.152ZM229.973 377.737C231.263 377.737 232.414 377.433 233.426 376.826C234.437 376.194 235.234 375.334 235.816 374.246C236.423 373.158 236.727 371.944 236.727 370.603C236.727 369.237 236.423 368.023 235.816 366.961C235.234 365.898 234.437 365.063 233.426 364.456C232.414 363.824 231.263 363.508 229.973 363.508C228.708 363.508 227.557 363.824 226.52 364.456C225.508 365.063 224.711 365.898 224.129 366.961C223.547 368.023 223.256 369.237 223.256 370.603C223.256 371.944 223.547 373.158 224.129 374.246C224.711 375.334 225.508 376.194 226.52 376.826C227.557 377.433 228.708 377.737 229.973 377.737ZM255.628 381.152C253.579 381.152 251.77 380.709 250.202 379.824C248.633 378.913 247.394 377.674 246.483 376.105C245.598 374.511 245.155 372.69 245.155 370.641C245.155 368.567 245.598 366.746 246.483 365.177C247.394 363.583 248.633 362.344 250.202 361.459C251.77 360.548 253.579 360.093 255.628 360.093C257.651 360.093 259.448 360.548 261.016 361.459C262.584 362.344 263.811 363.583 264.697 365.177C265.607 366.746 266.063 368.567 266.063 370.641C266.063 372.69 265.62 374.511 264.734 376.105C263.849 377.674 262.622 378.913 261.054 379.824C259.485 380.709 257.677 381.152 255.628 381.152ZM255.628 377.737C256.943 377.737 258.107 377.433 259.119 376.826C260.131 376.219 260.915 375.384 261.471 374.322C262.053 373.259 262.344 372.032 262.344 370.641C262.344 369.25 262.053 368.023 261.471 366.961C260.915 365.873 260.131 365.025 259.119 364.418C258.107 363.811 256.943 363.508 255.628 363.508C254.312 363.508 253.149 363.811 252.137 364.418C251.125 365.025 250.328 365.873 249.746 366.961C249.165 368.023 248.874 369.25 248.874 370.641C248.874 372.032 249.165 373.259 249.746 374.322C250.328 375.384 251.125 376.219 252.137 376.826C253.149 377.433 254.312 377.737 255.628 377.737Z" fill="white"/>
<defs>
<filter id="filter0_f_32_2335" x="-185" y="0" width="777" height="777" filterUnits="userSpaceOnUse" color-interpolation-filters="sRGB">
<feFlood flood-opacity="0" result="BackgroundImageFix"/>
<feBlend mode="normal" in="SourceGraphic" in2="BackgroundImageFix" result="shape"/>
<feGaussianBlur stdDeviation="122.5" result="effect1_foregroundBlur_32_2335"/>
</filter>
<filter id="filter1_di_32_2335" x="152" y="182" width="25" height="25" filterUnits="userSpaceOnUse" color-interpolation-filters="sRGB">
<feFlood flood-opacity="0" result="BackgroundImageFix"/>
<feColorMatrix in="SourceAlpha" type="matrix" values="0 0 0 0 0 0 0 0 0 0 0 0 0 0 0 0 0 0 127 0" result="hardAlpha"/>
<feOffset dy="4"/>
<feGaussianBlur stdDeviation="2"/>
<feComposite in2="hardAlpha" operator="out"/>
<feColorMatrix type="matrix" values="0 0 0 0 0.0196078 0 0 0 0 0.0627451 0 0 0 0 0.239216 0 0 0 1 0"/>
<feBlend mode="normal" in2="BackgroundImageFix" result="effect1_dropShadow_32_2335"/>
<feBlend mode="normal" in="SourceGraphic" in2="effect1_dropShadow_32_2335" result="shape"/>
<feColorMatrix in="SourceAlpha" type="matrix" values="0 0 0 0 0 0 0 0 0 0 0 0 0 0 0 0 0 0 127 0" result="hardAlpha"/>
<feOffset dy="6"/>
<feGaussianBlur stdDeviation="1.5"/>
<feComposite in2="hardAlpha" operator="arithmetic" k2="-1" k3="1"/>
<feColorMatrix type="matrix" values="0 0 0 0 0 0 0 0 0 0 0 0 0 0 0 0 0 0 0.5 0"/>
<feBlend mode="normal" in2="shape" result="effect2_innerShadow_32_2335"/>
</filter>
<filter id="filter2_di_32_2335" x="99" y="524" width="25" height="25" filterUnits="userSpaceOnUse" color-interpolation-filters="sRGB">
<feFlood flood-opacity="0" result="BackgroundImageFix"/>
<feColorMatrix in="SourceAlpha" type="matrix" values="0 0 0 0 0 0 0 0 0 0 0 0 0 0 0 0 0 0 127 0" result="hardAlpha"/>
<feOffset dy="4"/>
<feGaussianBlur stdDeviation="2"/>
<feComposite in2="hardAlpha" operator="out"/>
<feColorMatrix type="matrix" values="0 0 0 0 0.0196078 0 0 0 0 0.0627451 0 0 0 0 0.239216 0 0 0 1 0"/>
<feBlend mode="normal" in2="BackgroundImageFix" result="effect1_dropShadow_32_2335"/>
<feBlend mode="normal" in="SourceGraphic" in2="effect1_dropShadow_32_2335" result="shape"/>
<feColorMatrix in="SourceAlpha" type="matrix" values="0 0 0 0 0 0 0 0 0 0 0 0 0 0 0 0 0 0 127 0" result="hardAlpha"/>
<feOffset dy="6"/>
<feGaussianBlur stdDeviation="1.5"/>
<feComposite in2="hardAlpha" operator="arithmetic" k2="-1" k3="1"/>
<feColorMatrix type="matrix" values="0 0 0 0 0 0 0 0 0 0 0 0 0 0 0 0 0 0 0.5 0"/>
<feBlend mode="normal" in2="shape" result="effect2_innerShadow_32_2335"/>
</filter>
<filter id="filter3_di_32_2335" x="65" y="306" width="25" height="25" filterUnits="userSpaceOnUse" color-interpolation-filters="sRGB">
<feFlood flood-opacity="0" result="BackgroundImageFix"/>
<feColorMatrix in="SourceAlpha" type="matrix" values="0 0 0 0 0 0 0 0 0 0 0 0 0 0 0 0 0 0 127 0" result="hardAlpha"/>
<feOffset dy="4"/>
<feGaussianBlur stdDeviation="2"/>
<feComposite in2="hardAlpha" operator="out"/>
<feColorMatrix type="matrix" values="0 0 0 0 0.0196078 0 0 0 0 0.0627451 0 0 0 0 0.239216 0 0 0 1 0"/>
<feBlend mode="normal" in2="BackgroundImageFix" result="effect1_dropShadow_32_2335"/>
<feBlend mode="normal" in="SourceGraphic" in2="effect1_dropShadow_32_2335" result="shape"/>
<feColorMatrix in="SourceAlpha" type="matrix" values="0 0 0 0 0 0 0 0 0 0 0 0 0 0 0 0 0 0 127 0" result="hardAlpha"/>
<feOffset dy="6"/>
<feGaussianBlur stdDeviation="1.5"/>
<feComposite in2="hardAlpha" operator="arithmetic" k2="-1" k3="1"/>
<feColorMatrix type="matrix" values="0 0 0 0 0 0 0 0 0 0 0 0 0 0 0 0 0 0 0.5 0"/>
<feBlend mode="normal" in2="shape" result="effect2_innerShadow_32_2335"/>
</filter>
<filter id="filter4_di_32_2335" x="326" y="327" width="25" height="25" filterUnits="userSpaceOnUse" color-interpolation-filters="sRGB">
<feFlood flood-opacity="0" result="BackgroundImageFix"/>
<feColorMatrix in="SourceAlpha" type="matrix" values="0 0 0 0 0 0 0 0 0 0 0 0 0 0 0 0 0 0 127 0" result="hardAlpha"/>
<feOffset dy="4"/>
<feGaussianBlur stdDeviation="2"/>
<feComposite in2="hardAlpha" operator="out"/>
<feColorMatrix type="matrix" values="0 0 0 0 0.0196078 0 0 0 0 0.0627451 0 0 0 0 0.239216 0 0 0 1 0"/>
<feBlend mode="normal" in2="BackgroundImageFix" result="effect1_dropShadow_32_2335"/>
<feBlend mode="normal" in="SourceGraphic" in2="effect1_dropShadow_32_2335" result="shape"/>
<feColorMatrix in="SourceAlpha" type="matrix" values="0 0 0 0 0 0 0 0 0 0 0 0 0 0 0 0 0 0 127 0" result="hardAlpha"/>
<feOffset dy="6"/>
<feGaussianBlur stdDeviation="1.5"/>
<feComposite in2="hardAlpha" operator="arithmetic" k2="-1" k3="1"/>
<feColorMatrix type="matrix" values="0 0 0 0 0 0 0 0 0 0 0 0 0 0 0 0 0 0 0.5 0"/>
<feBlend mode="normal" in2="shape" result="effect2_innerShadow_32_2335"/>
</filter>
<filter id="filter5_di_32_2335" x="174" y="495" width="25" height="25" filterUnits="userSpaceOnUse" color-interpolation-filters="sRGB">
<feFlood flood-opacity="0" result="BackgroundImageFix"/>
<feColorMatrix in="SourceAlpha" type="matrix" values="0 0 0 0 0 0 0 0 0 0 0 0 0 0 0 0 0 0 127 0" result="hardAlpha"/>
<feOffset dy="4"/>
<feGaussianBlur stdDeviation="2"/>
<feComposite in2="hardAlpha" operator="out"/>
<feColorMatrix type="matrix" values="0 0 0 0 0.0196078 0 0 0 0 0.0627451 0 0 0 0 0.239216 0 0 0 1 0"/>
<feBlend mode="normal" in2="BackgroundImageFix" result="effect1_dropShadow_32_2335"/>
<feBlend mode="normal" in="SourceGraphic" in2="effect1_dropShadow_32_2335" result="shape"/>
<feColorMatrix in="SourceAlpha" type="matrix" values="0 0 0 0 0 0 0 0 0 0 0 0 0 0 0 0 0 0 127 0" result="hardAlpha"/>
<feOffset dy="6"/>
<feGaussianBlur stdDeviation="1.5"/>
<feComposite in2="hardAlpha" operator="arithmetic" k2="-1" k3="1"/>
<feColorMatrix type="matrix" values="0 0 0 0 0 0 0 0 0 0 0 0 0 0 0 0 0 0 0.5 0"/>
<feBlend mode="normal" in2="shape" result="effect2_innerShadow_32_2335"/>
</filter>
<filter id="filter6_di_32_2335" x="318.281" y="427.614" width="18.332" height="19.9316" filterUnits="userSpaceOnUse" color-interpolation-filters="sRGB">
<feFlood flood-opacity="0" result="BackgroundImageFix"/>
<feColorMatrix in="SourceAlpha" type="matrix" values="0 0 0 0 0 0 0 0 0 0 0 0 0 0 0 0 0 0 127 0" result="hardAlpha"/>
<feOffset dy="2.93262"/>
<feGaussianBlur stdDeviation="1.46631"/>
<feComposite in2="hardAlpha" operator="out"/>
<feColorMatrix type="matrix" values="0 0 0 0 0.0196078 0 0 0 0 0.0627451 0 0 0 0 0.239216 0 0 0 1 0"/>
<feBlend mode="normal" in2="BackgroundImageFix" result="effect1_dropShadow_32_2335"/>
<feBlend mode="normal" in="SourceGraphic" in2="effect1_dropShadow_32_2335" result="shape"/>
<feColorMatrix in="SourceAlpha" type="matrix" values="0 0 0 0 0 0 0 0 0 0 0 0 0 0 0 0 0 0 127 0" result="hardAlpha"/>
<feOffset dx="-3" dy="-1.6"/>
<feGaussianBlur stdDeviation="1.09973"/>
<feComposite in2="hardAlpha" operator="arithmetic" k2="-1" k3="1"/>
<feColorMatrix type="matrix" values="0 0 0 0 0 0 0 0 0 0 0 0 0 0 0 0 0 0 0.5 0"/>
<feBlend mode="normal" in2="shape" result="effect2_innerShadow_32_2335"/>
</filter>
</defs>
</svg>
