<svg width="98" height="20" viewBox="0 0 98 20" fill="none" xmlns="http://www.w3.org/2000/svg">
<path d="M27.0301 15V5.2H28.2061V15H27.0301ZM30.214 15V8.056H31.278L31.348 9.302C31.572 8.86333 31.894 8.518 32.314 8.266C32.734 8.014 33.21 7.888 33.742 7.888C34.5634 7.888 35.2167 8.14 35.702 8.644C36.1967 9.13867 36.444 9.904 36.444 10.94V15H35.268V11.066C35.268 9.61933 34.6707 8.896 33.476 8.896C32.8787 8.896 32.3794 9.11533 31.978 9.554C31.586 9.98333 31.39 10.5993 31.39 11.402V15H30.214ZM40.091 15L37.459 8.056H38.691L40.777 13.866L42.877 8.056H44.081L41.449 15H40.091ZM47.3444 15.168C46.7657 15.168 46.285 15.07 45.9024 14.874C45.5197 14.678 45.235 14.4167 45.0484 14.09C44.8617 13.7633 44.7684 13.4087 44.7684 13.026C44.7684 12.3167 45.039 11.7707 45.5804 11.388C46.1217 11.0053 46.859 10.814 47.7924 10.814H49.6684V10.73C49.6684 10.1233 49.5097 9.666 49.1924 9.358C48.875 9.04067 48.4504 8.882 47.9184 8.882C47.461 8.882 47.0644 8.99867 46.7284 9.232C46.4017 9.456 46.1964 9.78733 46.1124 10.226H44.9084C44.955 9.722 45.123 9.29733 45.4124 8.952C45.711 8.60667 46.0797 8.34533 46.5184 8.168C46.957 7.98133 47.4237 7.888 47.9184 7.888C48.889 7.888 49.617 8.14933 50.1024 8.672C50.597 9.18533 50.8444 9.87133 50.8444 10.73V15H49.7944L49.7244 13.754C49.5284 14.146 49.239 14.482 48.8564 14.762C48.483 15.0327 47.979 15.168 47.3444 15.168ZM47.5264 14.174C47.9744 14.174 48.357 14.0573 48.6744 13.824C49.001 13.5907 49.2484 13.2873 49.4164 12.914C49.5844 12.5407 49.6684 12.1487 49.6684 11.738V11.724H47.8904C47.1997 11.724 46.7097 11.8453 46.4204 12.088C46.1404 12.3213 46.0004 12.6153 46.0004 12.97C46.0004 13.334 46.131 13.628 46.3924 13.852C46.663 14.0667 47.041 14.174 47.5264 14.174ZM52.6086 15V4.92H53.7846V15H52.6086ZM56.4261 6.516C56.1928 6.516 55.9968 6.44133 55.8381 6.292C55.6888 6.13333 55.6141 5.93733 55.6141 5.704C55.6141 5.48 55.6888 5.29333 55.8381 5.144C55.9968 4.99467 56.1928 4.92 56.4261 4.92C56.6501 4.92 56.8414 4.99467 57.0001 5.144C57.1588 5.29333 57.2381 5.48 57.2381 5.704C57.2381 5.93733 57.1588 6.13333 57.0001 6.292C56.8414 6.44133 56.6501 6.516 56.4261 6.516ZM55.8381 15V8.056H57.0141V15H55.8381ZM62.2117 15.168C61.521 15.168 60.9144 15.0093 60.3917 14.692C59.8784 14.3747 59.477 13.9407 59.1877 13.39C58.9077 12.8393 58.7677 12.214 58.7677 11.514C58.7677 10.814 58.9124 10.1933 59.2017 9.652C59.491 9.10133 59.8924 8.672 60.4057 8.364C60.919 8.04667 61.5257 7.888 62.2257 7.888C62.795 7.888 63.299 8.00467 63.7377 8.238C64.1764 8.47133 64.517 8.798 64.7597 9.218V4.92H65.9357V15H64.8717L64.7597 13.852C64.5357 14.188 64.2137 14.4913 63.7937 14.762C63.3737 15.0327 62.8464 15.168 62.2117 15.168ZM62.3377 14.146C62.8044 14.146 63.215 14.0387 63.5697 13.824C63.9337 13.6 64.2137 13.292 64.4097 12.9C64.615 12.508 64.7177 12.0507 64.7177 11.528C64.7177 11.0053 64.615 10.548 64.4097 10.156C64.2137 9.764 63.9337 9.46067 63.5697 9.246C63.215 9.022 62.8044 8.91 62.3377 8.91C61.8804 8.91 61.4697 9.022 61.1057 9.246C60.751 9.46067 60.471 9.764 60.2657 10.156C60.0697 10.548 59.9717 11.0053 59.9717 11.528C59.9717 12.0507 60.0697 12.508 60.2657 12.9C60.471 13.292 60.751 13.6 61.1057 13.824C61.4697 14.0387 61.8804 14.146 62.3377 14.146ZM76.0798 15.168C75.1185 15.168 74.2738 14.958 73.5458 14.538C72.8271 14.1087 72.2625 13.5113 71.8518 12.746C71.4505 11.9807 71.2498 11.0987 71.2498 10.1C71.2498 9.10133 71.4505 8.224 71.8518 7.468C72.2625 6.70267 72.8271 6.10533 73.5458 5.676C74.2738 5.24667 75.1185 5.032 76.0798 5.032C77.0505 5.032 77.8951 5.24667 78.6138 5.676C79.3418 6.10533 79.9065 6.70267 80.3078 7.468C80.7091 8.224 80.9098 9.10133 80.9098 10.1C80.9098 11.0987 80.7091 11.9807 80.3078 12.746C79.9065 13.5113 79.3418 14.1087 78.6138 14.538C77.8951 14.958 77.0505 15.168 76.0798 15.168ZM76.0798 14.132C76.7985 14.132 77.4285 13.9733 77.9698 13.656C78.5205 13.3293 78.9451 12.8673 79.2438 12.27C79.5518 11.6633 79.7058 10.94 79.7058 10.1C79.7058 9.26 79.5518 8.54133 79.2438 7.944C78.9451 7.34667 78.5205 6.88933 77.9698 6.572C77.4285 6.24533 76.7985 6.082 76.0798 6.082C75.3611 6.082 74.7265 6.24533 74.1758 6.572C73.6345 6.88933 73.2098 7.34667 72.9018 7.944C72.6031 8.54133 72.4538 9.26 72.4538 10.1C72.4538 10.94 72.6031 11.6633 72.9018 12.27C73.2098 12.8673 73.6345 13.3293 74.1758 13.656C74.7265 13.9733 75.3611 14.132 76.0798 14.132ZM84.3965 15V6.166H81.4705V5.2H88.4985V6.166H85.5725V15H84.3965ZM89.9344 15V5.2H93.1544C93.9198 5.2 94.5498 5.326 95.0444 5.578C95.5391 5.83 95.9031 6.17067 96.1364 6.6C96.3791 7.02933 96.5004 7.51467 96.5004 8.056C96.5004 8.588 96.3838 9.06867 96.1504 9.498C95.9171 9.92733 95.5531 10.2727 95.0584 10.534C94.5638 10.786 93.9291 10.912 93.1544 10.912H91.1104V15H89.9344ZM91.1104 9.918H93.1264C93.9104 9.918 94.4658 9.75467 94.7924 9.428C95.1284 9.092 95.2964 8.63467 95.2964 8.056C95.2964 7.468 95.1284 7.01067 94.7924 6.684C94.4658 6.348 93.9104 6.18 93.1264 6.18H91.1104V9.918Z" fill="#EB3F3F"/>
<path d="M10 1.25C12.3206 1.25 14.5462 2.17187 16.1872 3.81282C17.8281 5.45376 18.75 7.67936 18.75 10C18.75 12.3206 17.8281 14.5462 16.1872 16.1872C14.5462 17.8281 12.3206 18.75 10 18.75C7.67936 18.75 5.45376 17.8281 3.81282 16.1872C2.17187 14.5462 1.25 12.3206 1.25 10C1.25 7.67936 2.17187 5.45376 3.81282 3.81282C5.45376 2.17187 7.67936 1.25 10 1.25ZM10 17.5C11.9891 17.5 13.8968 16.7098 15.3033 15.3033C16.7098 13.8968 17.5 11.9891 17.5 10C17.5 8.01088 16.7098 6.10322 15.3033 4.6967C13.8968 3.29018 11.9891 2.5 10 2.5C8.01088 2.5 6.10322 3.29018 4.6967 4.6967C3.29018 6.10322 2.5 8.01088 2.5 10C2.5 11.9891 3.29018 13.8968 4.6967 15.3033C6.10322 16.7098 8.01088 17.5 10 17.5ZM10.9375 14.0625C10.9375 14.3111 10.8387 14.5496 10.6629 14.7254C10.4871 14.9012 10.2486 15 10 15C9.75136 15 9.5129 14.9012 9.33709 14.7254C9.16127 14.5496 9.0625 14.3111 9.0625 14.0625C9.0625 13.8139 9.16127 13.5754 9.33709 13.3996C9.5129 13.2238 9.75136 13.125 10 13.125C10.2486 13.125 10.4871 13.2238 10.6629 13.3996C10.8387 13.5754 10.9375 13.8139 10.9375 14.0625ZM10 5C10.1658 5 10.3247 5.06585 10.4419 5.18306C10.5592 5.30027 10.625 5.45924 10.625 5.625V11.25C10.625 11.4158 10.5592 11.5747 10.4419 11.6919C10.3247 11.8092 10.1658 11.875 10 11.875C9.83424 11.875 9.67527 11.8092 9.55806 11.6919C9.44085 11.5747 9.375 11.4158 9.375 11.25V5.625C9.375 5.45924 9.44085 5.30027 9.55806 5.18306C9.67527 5.06585 9.83424 5 10 5Z" fill="#EB3F3F"/>
</svg>
