<svg width="22" height="22" viewBox="0 0 22 22" fill="none" xmlns="http://www.w3.org/2000/svg">
<path fill-rule="evenodd" clip-rule="evenodd" d="M14.8806 20.8104H6.9936C3.90718 20.8104 1.83368 18.6425 1.83368 15.4158V8.00733C1.83368 4.77608 3.90718 2.60449 6.9936 2.60449H13.6559C14.0354 2.60449 14.3434 2.91249 14.3434 3.29199C14.3434 3.67149 14.0354 3.97949 13.6559 3.97949H6.9936C4.6946 3.97949 3.20868 5.55983 3.20868 8.00733V15.4158C3.20868 17.8954 4.65885 19.4354 6.9936 19.4354H14.8806C17.1796 19.4354 18.6655 17.8578 18.6655 15.4158V8.96341C18.6655 8.58391 18.9735 8.27591 19.353 8.27591C19.7325 8.27591 20.0405 8.58391 20.0405 8.96341V15.4158C20.0405 18.6425 17.967 20.8104 14.8806 20.8104Z" fill="#E1E3FF"/>
<path d="M16.5 2.75049V6.41674H20.1663" stroke="#E1E3FF" stroke-width="1.26909" stroke-linecap="round" stroke-linejoin="round"/>
<path d="M21.0828 1.8335L16.5 6.41632" stroke="#E1E3FF" stroke-width="1.26909" stroke-linecap="round" stroke-linejoin="round"/>
<path d="M8.25 13.5576C8.25 14.5236 8.99698 15.3005 9.91326 15.3005H11.7856C12.5824 15.3005 13.2298 14.6232 13.2298 13.7767C13.2298 12.8704 12.8314 12.5417 12.2438 12.3325L9.24596 11.2868C8.65834 11.0776 8.25997 10.7589 8.25997 9.84266C8.25997 9.00606 8.90732 8.31885 9.70409 8.31885H11.5765C12.4928 8.31885 13.2397 9.09569 13.2397 10.0618" stroke="#E1E3FF" stroke-width="1.37901" stroke-linecap="round" stroke-linejoin="round"/>
<path d="M10.7395 7.3335V16.2971" stroke="#E1E3FF" stroke-width="1.37901" stroke-linecap="round" stroke-linejoin="round"/>
</svg>
