<svg width="24" height="24" viewBox="0 0 24 24" fill="none" xmlns="http://www.w3.org/2000/svg">
<mask id="mask0_1_2853" style="mask-type:luminance" maskUnits="userSpaceOnUse" x="2" y="1" width="18" height="21">
<path fill-rule="evenodd" clip-rule="evenodd" d="M2.9278 1.96338H19.5684V21.3371H2.9278V1.96338Z" fill="white"/>
</mask>
<g mask="url(#mask0_1_2853)">
<path fill-rule="evenodd" clip-rule="evenodd" d="M7.39038 3.42713C5.77343 3.42713 4.43068 4.7367 4.39262 6.3517V16.7882C4.35652 18.4598 5.67389 19.8367 7.3289 19.8738H15.198C16.8267 19.8065 18.1167 18.453 18.105 16.7941V8.13845L13.582 3.42713H7.40209H7.39038ZM7.40209 21.3376H7.29573C4.83467 21.282 2.8752 19.2347 2.92887 16.7726V6.33414C2.98547 3.91309 4.98495 1.96338 7.38843 1.96338H7.40502H13.8943C14.0934 1.96338 14.2837 2.04437 14.4222 2.18782L19.3648 7.33729C19.4956 7.47293 19.5688 7.65542 19.5688 7.84375V16.7882C19.5863 19.2366 17.6796 21.2371 15.2273 21.3366L7.40209 21.3376Z" fill="#E1E3FF"/>
</g>
<path fill-rule="evenodd" clip-rule="evenodd" d="M18.8321 8.76737H16.1437C14.3579 8.76249 12.9059 7.30655 12.9059 5.52272V2.68402C12.9059 2.28003 13.2338 1.95215 13.6378 1.95215C14.0418 1.95215 14.3696 2.28003 14.3696 2.68402V5.52272C14.3696 6.50246 15.1669 7.30069 16.1457 7.30362H18.8321C19.2361 7.30362 19.564 7.6315 19.564 8.03549C19.564 8.43949 19.2361 8.76737 18.8321 8.76737Z" fill="#E1E3FF"/>
<path fill-rule="evenodd" clip-rule="evenodd" d="M13.4555 15.7191H8.18598C7.78198 15.7191 7.4541 15.3912 7.4541 14.9872C7.4541 14.5833 7.78198 14.2554 8.18598 14.2554H13.4555C13.8595 14.2554 14.1874 14.5833 14.1874 14.9872C14.1874 15.3912 13.8595 15.7191 13.4555 15.7191Z" fill="#E1E3FF"/>
<path fill-rule="evenodd" clip-rule="evenodd" d="M11.46 12.058H8.18512C7.78113 12.058 7.45325 11.7301 7.45325 11.3261C7.45325 10.9221 7.78113 10.5942 8.18512 10.5942H11.46C11.864 10.5942 12.1919 10.9221 12.1919 11.3261C12.1919 11.7301 11.864 12.058 11.46 12.058Z" fill="#E1E3FF"/>
</svg>
