<svg width="24" height="24" viewBox="0 0 24 24" fill="none" xmlns="http://www.w3.org/2000/svg">
<path fill-rule="evenodd" clip-rule="evenodd" d="M6.94898 17.1384C6.54498 17.1384 6.2171 16.8106 6.2171 16.4066V9.71234C6.2171 9.30835 6.54498 8.98047 6.94898 8.98047C7.35297 8.98047 7.68085 9.30835 7.68085 9.71234V16.4066C7.68085 16.8106 7.35297 17.1384 6.94898 17.1384Z" fill="#E1E3FF"/>
<path fill-rule="evenodd" clip-rule="evenodd" d="M11.5032 17.1375C11.0992 17.1375 10.7714 16.8096 10.7714 16.4056V6.50775C10.7714 6.10376 11.0992 5.77588 11.5032 5.77588C11.9072 5.77588 12.2351 6.10376 12.2351 6.50775V16.4056C12.2351 16.8096 11.9072 17.1375 11.5032 17.1375Z" fill="#E1E3FF"/>
<path fill-rule="evenodd" clip-rule="evenodd" d="M15.9826 17.1372C15.5786 17.1372 15.2507 16.8093 15.2507 16.4053V13.2495C15.2507 12.8455 15.5786 12.5176 15.9826 12.5176C16.3866 12.5176 16.7145 12.8455 16.7145 13.2495V16.4053C16.7145 16.8093 16.3866 17.1372 15.9826 17.1372Z" fill="#E1E3FF"/>
<path fill-rule="evenodd" clip-rule="evenodd" d="M6.89328 2.43982C4.18827 2.43982 2.43958 4.29098 2.43958 7.15798V15.7746C2.43958 18.6416 4.18827 20.4927 6.89328 20.4927H16.0388C18.7448 20.4927 20.4925 18.6416 20.4925 15.7746V7.15798C20.4925 4.29098 18.7448 2.43982 16.0388 2.43982H6.89328ZM16.0388 21.9565H6.89328C3.35394 21.9565 0.97583 19.472 0.97583 15.7746V7.15798C0.97583 3.46055 3.35394 0.976074 6.89328 0.976074H16.0388C19.5781 0.976074 21.9562 3.46055 21.9562 7.15798V15.7746C21.9562 19.472 19.5781 21.9565 16.0388 21.9565Z" fill="#E1E3FF"/>
</svg>
