<svg width="26" height="26" viewBox="0 0 26 26" fill="none" xmlns="http://www.w3.org/2000/svg">
<g id="Swap">
<path id="Fill 1" d="M7.77159 11.5171C7.30381 11.299 6.74597 11.5068 6.52466 11.9815L4.35667 16.0227C4.07463 16.6277 4.32998 17.343 4.92611 17.6209C5.52224 17.8988 6.23321 17.6339 6.51525 17.029L8.21758 12.7707C8.43889 12.296 8.23937 11.7351 7.77159 11.5171Z" fill="#E1E3FF"/>
<path id="Fill 3" d="M12.8214 3.70193C12.8214 3.70193 12.6949 3.33895 12.595 3.16C12.4547 2.8902 12.2245 2.68063 11.9561 2.55552C11.6548 2.41509 11.3307 2.37927 11.0193 2.45166C10.9583 2.47436 10.7085 2.55052 10.4944 2.63025C9.18022 3.06727 6.63841 4.6225 5.63277 5.58864C5.47733 5.73372 5.11063 6.11316 4.98817 6.35092C4.88077 6.5813 4.82831 6.82679 4.8344 7.08517C4.85727 7.41558 4.98696 7.7329 5.20269 7.97368C5.35475 8.13499 5.86005 8.51078 5.87066 8.51572C6.4285 8.91731 7.39435 9.44358 8.49327 9.95587C9.5402 10.4439 10.5229 10.826 11.1887 11.0211C11.2043 11.0153 11.9517 11.2235 12.2496 11.2077C12.7924 11.179 13.2736 10.853 13.499 10.3696L13.5185 10.3276C13.655 10.0073 13.6936 9.21805 13.6841 9.2136C13.7479 7.8857 13.3523 5.02535 12.8214 3.70193Z" fill="#E1E3FF"/>
<path id="Fill 6" d="M18.1215 14.3773C18.5893 14.5954 19.1472 14.3876 19.3685 13.9129L21.5355 9.87114C21.8175 9.26613 21.5632 8.55132 20.9671 8.27341C20.371 7.99551 19.6589 8.25984 19.3769 8.86485L17.6756 13.1237C17.4542 13.5984 17.6538 14.1593 18.1215 14.3773Z" fill="white"/>
<path id="Fill 8" d="M21.0586 18.8086C21.0357 18.4782 20.9055 18.1619 20.6903 17.92C20.5382 17.7587 20.0318 17.3825 20.0223 17.378C19.4645 16.9764 18.4986 16.4501 17.3997 15.9378C16.3528 15.4498 15.3701 15.0677 14.7043 14.8726C14.6887 14.8785 13.9408 14.6713 13.6434 14.686C13.0995 14.7142 12.6193 15.0408 12.3935 15.5252L12.3739 15.5672C12.2375 15.8876 12.1983 16.6752 12.2089 16.6802C12.145 18.0081 12.539 20.8691 13.0715 22.1919C13.0715 22.1919 13.198 22.5549 13.2984 22.7328C13.4371 23.0032 13.6674 23.2128 13.9379 23.3388C14.238 23.4788 14.5612 23.5141 14.8736 23.4422C14.9345 23.4195 15.1844 23.3434 15.398 23.2647C16.7116 22.8261 19.2545 21.2713 20.2586 20.3057C20.4151 20.1611 20.7823 19.7806 20.9043 19.5439C21.0122 19.3125 21.0646 19.067 21.0586 18.8086Z" fill="#E1E3FF"/>
</g>
</svg>
