<svg width="24" height="25" viewBox="0 0 24 25" fill="none" xmlns="http://www.w3.org/2000/svg">
<g clip-path="url(#clip0_1_2748)">
<path fill-rule="evenodd" clip-rule="evenodd" d="M12.0978 18.1205C17.6058 18.1205 20.1539 17.4139 20.4 14.5778C20.4 11.7436 18.6235 11.9258 18.6235 8.44838C18.6235 5.73212 16.0489 2.6416 12.0978 2.6416C8.14671 2.6416 5.57212 5.73212 5.57212 8.44838C5.57212 11.9258 3.79559 11.7436 3.79559 14.5778C4.04266 17.4246 6.59078 18.1205 12.0978 18.1205Z" stroke="white" stroke-width="1.4651" stroke-linecap="round" stroke-linejoin="round"/>
<path opacity="0.4" d="M14.431 21.0605C13.0986 22.54 11.0201 22.5576 9.67499 21.0605" stroke="#8D6DE9" stroke-width="1.4651" stroke-linecap="round" stroke-linejoin="round"/>
<circle cx="16.9814" cy="5.57213" r="4.34103" fill="#8D6DE9" stroke="white" stroke-width="1.08526"/>
<path d="M16.5734 6.71762C16.4449 6.71762 16.3077 6.69852 16.1619 6.66032C16.016 6.61864 15.8962 6.55961 15.8024 6.4832C15.7573 6.445 15.7208 6.39638 15.693 6.33735C15.6687 6.27483 15.6566 6.2158 15.6566 6.16023C15.6566 6.10119 15.6809 6.04563 15.7295 5.99354C15.7816 5.94144 15.8545 5.9154 15.9483 5.9154C16.0108 5.9154 16.0889 5.94839 16.1827 6.01437C16.2383 6.0491 16.299 6.08036 16.365 6.10814C16.431 6.13592 16.4987 6.14981 16.5682 6.14981C16.7349 6.14981 16.879 6.12029 17.0006 6.06126C17.1221 5.99875 17.2159 5.91366 17.2818 5.806C17.3478 5.69835 17.3808 5.57159 17.3808 5.42573C17.3808 5.29376 17.3496 5.18089 17.2871 5.08713C17.228 4.99336 17.1481 4.92043 17.0474 4.86834C16.9502 4.81625 16.8443 4.7902 16.7297 4.7902C16.622 4.7902 16.5282 4.80757 16.4484 4.84229C16.3685 4.87702 16.2956 4.91349 16.2296 4.95169C16.1636 4.98642 16.0976 5.00378 16.0316 5.00378C15.917 5.00378 15.8319 4.97947 15.7764 4.93085C15.7208 4.87876 15.6861 4.81798 15.6722 4.74853C15.6583 4.67907 15.6548 4.61656 15.6618 4.561L15.8233 3.29515C15.8372 3.22222 15.8719 3.16318 15.9274 3.11804C15.9865 3.06942 16.0559 3.04511 16.1358 3.04511H17.6413C17.7246 3.04511 17.7941 3.07289 17.8497 3.12846C17.9052 3.18402 17.933 3.25348 17.933 3.33683C17.933 3.4167 17.9052 3.48442 17.8497 3.53999C17.7941 3.59208 17.7246 3.61812 17.6413 3.61812H16.2973L16.3546 3.57124L16.214 4.62872L16.1462 4.43076C16.1671 4.39604 16.2122 4.36304 16.2817 4.33179C16.3511 4.30053 16.431 4.27449 16.5213 4.25365C16.6116 4.22934 16.7002 4.21719 16.787 4.21719C17.0197 4.21719 17.228 4.27102 17.4121 4.37867C17.5961 4.48286 17.7403 4.62698 17.8444 4.81104C17.9521 4.99163 18.0059 5.19652 18.0059 5.42573C18.0059 5.68619 17.9469 5.91366 17.8288 6.10814C17.7107 6.30262 17.544 6.45369 17.3287 6.56134C17.1169 6.66553 16.8651 6.71762 16.5734 6.71762Z" fill="white"/>
</g>
<defs>
<clipPath id="clip0_1_2748">
<rect width="23.4416" height="23.4416" fill="white" transform="translate(0.377014 0.688477)"/>
</clipPath>
</defs>
</svg>
