<svg width="20" height="20" viewBox="0 0 20 20" fill="none" xmlns="http://www.w3.org/2000/svg">
<g id="Group 34485">
<g id="Group 34480">
<circle id="Ellipse" cx="17.5" cy="2.5" r="2.5" fill="#E1E3FF"/>
<path id="Exclude" fill-rule="evenodd" clip-rule="evenodd" d="M17.2702 6.75902C15.0459 6.75902 13.2428 4.95855 13.2428 2.73756C13.2423 2.49001 13.2659 2.243 13.3131 2H5.34636C1.97851 2 0 4.00195 0 7.3561V14.6615C0 18.0156 1.97851 20 5.34636 20H12.6624C16.0215 20 18 18.0156 18 14.6615V6.68878C17.7594 6.73431 17.5151 6.75782 17.2702 6.75902ZM14.0078 9.20878L11.15 12.8966C11.0297 13.0569 10.8494 13.1615 10.6504 13.1863C10.4514 13.2111 10.2508 13.1541 10.0948 13.0283L7.35125 10.8771L4.88031 14.0732C4.70138 14.3573 4.35288 14.485 4.03238 14.3838C3.71187 14.2826 3.5002 13.9781 3.51734 13.6429C3.51586 13.4771 3.57177 13.3158 3.67562 13.1863L6.63019 9.37561C6.74898 9.2166 6.92691 9.11208 7.12381 9.08565C7.32071 9.05922 7.51997 9.11309 7.6766 9.23512L10.4201 11.3951L12.8295 8.29561C12.9453 8.1358 13.1211 8.02972 13.3167 8.00159C13.5122 7.97345 13.7108 8.02568 13.8671 8.14634C14.1901 8.39889 14.2525 8.86247 14.0078 9.19122V9.20878Z" fill="#E1E3FF"/>
</g>
</g>
</svg>
